<svg width="50" height="58" viewBox="0 0 50 58" fill="none" xmlns="http://www.w3.org/2000/svg">
<path d="M20.8986 0.0753441C20.5093 0.111977 20.0934 0.185246 19.9695 0.240196C19.7483 0.322624 19.7572 0.331783 20.0934 0.42337C20.5446 0.560749 21.0755 0.945412 21.2967 1.31176C21.4383 1.54988 21.8188 2.64891 21.8276 2.83208C21.8276 2.86872 20.9251 2.86872 19.8191 2.84124C18.076 2.80461 17.6071 2.82293 16.386 2.99694C14.2714 3.29917 13.0238 3.5373 12.1832 3.80289C11.555 4.00439 11.4577 4.05934 11.5992 4.14177C12.2451 4.54474 12.6522 4.87445 13.2981 5.53387C13.7051 5.94601 14.0413 6.33067 14.0413 6.37646C14.0413 6.42226 13.8555 6.48637 13.6254 6.50468C13.1919 6.55048 11.7939 7.09999 10.8295 7.59456C10.1835 7.93343 9.16601 8.62948 8.42277 9.23395C7.3787 10.0949 5.31709 12.4944 4.81275 13.4378L4.565 13.9048H4.8393C5.21092 13.9048 6.44965 14.2254 7.00708 14.4727C7.39639 14.6375 7.49372 14.6467 7.86534 14.5551C8.16618 14.4727 8.32544 14.4635 8.45816 14.5368C8.62628 14.6375 8.63512 14.6101 8.66167 14.0239C8.68821 13.4927 8.71476 13.4011 8.84748 13.4103C8.92711 13.4194 9.07753 13.4286 9.17486 13.4378C9.34297 13.4469 9.35182 13.511 9.35182 14.5917V15.7366H8.9979H8.64397V15.2145C8.64397 14.7383 8.63512 14.7108 8.49356 14.839C8.17502 15.1229 7.22828 15.6541 6.662 15.8739C4.24647 16.8173 2.69806 18.3101 1.30006 21.0669C0.848809 21.9461 -0.0979364 24.4372 0.0082406 24.4372C0.0259368 24.4372 0.503733 24.309 1.08771 24.1533C2.0433 23.8969 2.21141 23.8786 2.95465 23.9335C3.40591 23.9701 3.77753 24.0343 3.77753 24.0709C3.77753 24.1167 3.6625 24.2357 3.51208 24.3457C3.19355 24.5838 2.37953 25.8293 2.01676 26.6536C1.60974 27.5695 1.13195 29.044 0.93729 29.9782C0.689543 31.123 0.618759 33.5226 0.769176 35.6107L0.884201 37.241L1.20273 37.0303C2.16717 36.4075 3.23779 36.0229 3.75098 36.1236L4.03412 36.1786L3.82177 36.3709C3.53863 36.6365 3.4236 37.5798 3.4236 39.5947C3.4236 41.2708 3.57402 42.6354 3.92794 44.0458L4.16684 45.0258L4.65349 44.5862C5.29055 44.0275 6.50274 43.1941 6.55582 43.2857C6.57352 43.3223 6.61776 43.5146 6.65315 43.7161C6.74163 44.2656 7.21943 46.2897 7.42294 47.0132C7.78571 48.2863 8.59973 49.8341 9.37836 50.7682L9.68805 51.1346L9.77653 50.8965C9.82962 50.7682 10.1305 50.3469 10.4401 49.9623C10.856 49.4586 11.0418 49.2937 11.0949 49.3761C11.1391 49.4311 11.2896 49.6875 11.4311 49.944C12.6345 52.1329 15.2712 54.4225 18.2441 55.8604C20.9782 57.1793 26.172 57.9303 29.9236 57.5548C33.9672 57.1426 36.772 56.3733 40.0901 54.7522C41.3111 54.1661 42.9215 53.2411 43.7443 52.6732C46.0979 51.043 48.0976 48.4145 48.5046 46.4179C48.5665 46.1065 48.5665 46.1065 48.4073 46.2439C48.2215 46.4087 46.3457 47.1323 45.4432 47.3887C44.5584 47.636 43.1161 47.5994 40.5413 47.2513C37.1967 46.8117 36.0111 46.4454 34.5512 45.4379C31.9852 43.6612 30.4368 41.6463 29.5608 38.9719C28.7557 36.4991 28.9857 34.127 30.2156 32.1946C30.481 31.7824 31.3128 31.1413 32.056 30.7842C32.5515 30.5369 32.64 30.5277 33.861 30.5277C35.1351 30.5369 35.666 30.6101 36.7986 30.949C37.6391 31.2055 38.1612 31.5993 38.7098 32.4052C40.4351 34.9513 40.9926 35.6199 41.6473 35.9862C42.0278 36.1969 42.1251 36.206 43.5939 36.1969C44.8769 36.1969 45.275 36.1603 45.9387 35.9862C49.2301 35.1528 50.0088 34.0721 49.9999 30.3445C49.9999 29.3737 49.9468 28.5952 49.8407 28.0274C49.4956 26.0675 48.5223 23.9701 47.142 22.1934C46.3811 21.2134 46.3014 21.076 45.9475 20.0869C44.3018 15.5168 41.3819 10.6444 37.6303 6.21161C36.5951 4.98436 34.4008 2.73134 34.2415 2.73134C34.1796 2.73134 34.1088 2.83208 34.0734 2.9603C34.0203 3.19843 34.1707 4.23335 34.3211 4.65465C34.445 4.99352 34.6573 6.29404 34.6573 6.70617V7.06336L33.9318 6.24825C31.6932 3.74794 30.4899 2.66723 28.8884 1.6781C26.7295 0.350101 23.9246 -0.217731 20.8986 0.0753441ZM26.1455 3.97691C26.3313 4.03186 26.3401 4.0685 26.3401 5.25911V6.48637H25.942H25.5438V5.26827C25.5438 4.59053 25.5704 4.01354 25.6058 3.98607C25.6765 3.90364 25.88 3.90364 26.1455 3.97691ZM20.3765 4.25167C20.35 4.3341 20.3234 4.8653 20.3234 5.44229V6.48637H19.5271H18.7308V5.29575V4.10513H19.5802C20.3234 4.10513 20.4208 4.12345 20.3765 4.25167ZM15.9259 7.12747C16.1383 7.30148 16.156 7.38391 16.1825 8.10744C16.2002 8.62948 16.2445 8.9134 16.3153 8.93172C16.3949 8.95919 16.4303 8.73022 16.448 8.07081L16.4745 7.17326H16.9169H17.3593L17.4124 8.31809C17.4832 9.71936 17.5009 9.69188 16.3949 9.69188C15.2889 9.69188 15.2977 9.70104 15.342 8.29062C15.3685 7.67699 15.3951 7.11831 15.4128 7.0542C15.4658 6.88935 15.6694 6.91682 15.9259 7.12747ZM28.8972 7.92427C28.9238 8.97751 28.9326 9.05078 29.1361 9.05078C29.2335 9.05078 29.26 8.86761 29.26 8.09828V7.14579L29.4901 7.09999C30.0121 6.99925 30.0298 7.03588 30.1006 8.33641C30.1537 9.29806 30.136 9.54534 30.0386 9.61861C29.9236 9.70104 27.4373 9.68272 27.3842 9.60029C27.3665 9.57282 27.3665 8.96835 27.3842 8.24482L27.4108 6.9443H28.1363H28.8707L28.8972 7.92427ZM22.332 7.14579C22.385 7.2099 22.447 7.61288 22.4824 8.04333C22.5709 9.15152 22.7124 9.19732 22.7124 8.10744V7.22821L23.0575 7.12747C23.6061 6.98093 23.6857 7.0542 23.6857 7.75941C23.6857 8.08912 23.7211 8.61116 23.7742 8.90424C23.8361 9.2889 23.8273 9.48123 23.7654 9.57282C23.6415 9.71936 22.1373 9.73767 21.7922 9.60029L21.5622 9.51787L21.6153 8.39136C21.6507 7.76857 21.7126 7.2099 21.7657 7.14579C21.8099 7.09084 21.9426 7.03588 22.0488 7.03588C22.155 7.03588 22.2877 7.09084 22.332 7.14579ZM13.8643 11.432V12.6226H13.0326C12.5725 12.6226 12.1744 12.586 12.139 12.5402C12.0593 12.3937 11.9797 10.7451 12.0416 10.4795C12.0947 10.2414 12.1036 10.2414 12.9795 10.2414H13.8643V11.432ZM19.6598 11.4137V12.4853L19.2705 12.5127C19.0582 12.531 18.8458 12.5036 18.8016 12.4578C18.7485 12.4028 18.7396 11.9724 18.775 11.3587L18.8458 10.3421L19.1643 10.3147C19.3413 10.2963 19.5271 10.2963 19.5714 10.3147C19.6244 10.3238 19.6598 10.7726 19.6598 11.4137ZM26.3401 11.3221C26.3401 12.6226 26.3224 12.6501 25.3934 12.6593C24.4024 12.6684 24.3936 12.6593 24.3936 11.3771V10.333H25.3669H26.3401V11.3221ZM31.649 11.8899V13.4469H31.0739C30.6757 13.4469 30.4987 13.4103 30.4899 13.3278C30.4722 12.8882 30.5164 10.4612 30.5518 10.4062C30.5784 10.3696 30.835 10.333 31.127 10.333H31.649V11.8899ZM28.8088 13.4103C28.8353 13.4378 28.8707 13.9689 28.8884 14.6009L28.9238 15.7366H28.1629H27.4019V14.5551C27.4019 13.6942 27.4285 13.3553 27.5169 13.3187C27.6497 13.2546 28.7291 13.3278 28.8088 13.4103ZM30.1448 13.5293C30.1891 13.6301 30.2333 14.1613 30.2333 14.72V15.7366H29.8351H29.437V14.6009C29.437 13.5934 29.4547 13.4561 29.5962 13.4194C29.9148 13.3278 30.0563 13.3645 30.1448 13.5293ZM34.9582 13.4103C35.0732 13.4561 35.0998 13.6484 35.0998 14.6009V15.7366L34.8166 15.7457C34.6573 15.7549 34.4273 15.7732 34.3034 15.7824C34.1796 15.8007 33.976 15.7915 33.8433 15.764L33.5956 15.7091V14.5368V13.3553H34.2061C34.5423 13.3553 34.8785 13.3828 34.9582 13.4103ZM40.2316 14.5459V15.7366H39.8335H39.4353V14.5459V13.3553H39.8335H40.2316V14.5459ZM22.4293 13.74C22.4912 13.8041 22.5355 14.143 22.5355 14.6101C22.5355 15.0588 22.5709 15.3702 22.6239 15.3702C22.677 15.3702 22.7124 15.0497 22.7124 14.5917V13.8133H23.146H23.5884L23.6149 14.7749L23.6415 15.7366H22.6947H21.7391L21.7214 15.1138C21.6949 14.2254 21.7214 13.8957 21.8365 13.7583C21.9603 13.6026 22.2877 13.5934 22.4293 13.74ZM17.4036 14.6833C17.4036 15.1596 17.4036 15.5809 17.4036 15.6175C17.4036 15.6633 17.032 15.6908 16.5896 15.6908H15.7667L15.7401 15.3244C15.7224 15.1229 15.7313 14.7016 15.7667 14.3811L15.8286 13.8133H16.6161H17.4036V14.6833ZM31.6048 17.7972V18.8963L31.0562 18.9238L30.4987 18.9512V17.8614C30.4987 17.266 30.5253 16.744 30.5607 16.7074C30.5961 16.6707 30.8438 16.6524 31.1181 16.6707L31.6048 16.6982V17.7972ZM38.1081 16.7898C38.1612 16.8264 38.1966 17.3118 38.1966 17.898V18.9421H37.179H36.1615V17.843V16.7532L36.6747 16.7165C37.2498 16.6707 37.9842 16.7074 38.1081 16.7898ZM13.829 16.8539C13.8378 16.8722 13.8643 17.3393 13.8732 17.8888L13.882 18.8963L13.0326 18.8871C12.5725 18.8871 12.1655 18.8596 12.139 18.8413C12.077 18.7681 12.0682 16.9547 12.1301 16.8448C12.1832 16.7623 13.7405 16.7715 13.829 16.8539ZM20.3234 17.843V18.9421H19.7306C18.6866 18.9421 18.7308 18.997 18.7308 17.7881V16.744H19.5271H20.3234V17.843ZM26.3401 17.843V18.9421H25.942H25.5438V17.843V16.744H25.942H26.3401V17.843ZM15.9702 19.5465C16.1472 19.6656 16.1648 19.7663 16.1648 20.4166C16.1648 20.9661 16.1914 21.1493 16.2799 21.1218C16.3418 21.0943 16.4037 20.8196 16.4303 20.3525L16.4745 19.629L16.8108 19.5465C17.3151 19.4092 17.377 19.5374 17.4301 20.7921C17.4655 21.827 17.4655 21.8728 17.2797 21.9278C16.9966 22.0194 15.5278 21.9736 15.4039 21.8637C15.3243 21.7996 15.3066 21.4698 15.3331 20.673C15.3508 20.0594 15.3951 19.5282 15.4216 19.4824C15.4924 19.3542 15.749 19.3817 15.9702 19.5465ZM28.9149 19.5923C28.9592 19.6656 28.9857 20.2151 28.9769 20.8196L28.9503 21.9186L28.3752 21.9461C27.3488 21.9919 27.4019 22.0652 27.4019 20.6273V19.3725L28.1186 19.4183C28.5964 19.4458 28.8618 19.5007 28.9149 19.5923ZM34.5866 19.455L34.9847 19.5099L35.0555 20.6639C35.0998 21.5706 35.0909 21.827 34.9936 21.882C34.8609 21.9736 33.8522 21.9919 33.6487 21.9095C33.5336 21.8637 33.5071 21.6713 33.5071 20.7188C33.5071 19.3359 33.5336 19.3084 34.5866 19.455ZM9.03329 19.5465C9.14831 19.5923 9.17486 19.7938 9.17486 20.783V21.9736L8.36083 21.9461L7.53796 21.9186L7.51142 20.7005L7.48487 19.4916H8.19272C8.58204 19.4916 8.95366 19.5191 9.03329 19.5465ZM22.4824 19.6931C22.5089 19.8121 22.5355 20.1602 22.5355 20.4716C22.5355 20.7921 22.5709 21.0486 22.6239 21.0486C22.677 21.0486 22.7124 20.7555 22.7124 20.3617C22.7124 19.7022 22.7213 19.6656 22.9425 19.5832C23.0664 19.5282 23.2787 19.4916 23.4203 19.4916C23.7211 19.4916 23.7654 19.6748 23.7654 20.9753C23.7742 22.0377 23.8361 21.9827 22.5355 21.9461L21.6949 21.9186L21.6684 20.8287C21.6595 20.2243 21.6684 19.6748 21.6861 19.6106C21.7126 19.5374 21.8719 19.4916 22.0842 19.4916C22.3674 19.4916 22.4381 19.5282 22.4824 19.6931ZM40.1255 19.5465C40.3201 19.6015 40.329 19.629 40.3024 20.7646C40.2759 21.9003 40.2759 21.9186 40.0635 21.9461C39.9573 21.9644 39.7627 21.9553 39.6477 21.9278C39.4353 21.8728 39.4353 21.8545 39.4353 20.6822V19.4916H39.6831C39.8158 19.4916 40.0104 19.5191 40.1255 19.5465ZM42.5587 19.6748C42.6914 19.6748 42.7091 19.7847 42.7091 20.7738C42.7091 21.4424 42.7445 21.8728 42.7976 21.8728C42.8507 21.8728 42.8861 21.6164 42.8861 21.2775C42.8861 20.7188 42.9038 20.673 43.1161 20.5906C43.24 20.5357 43.4346 20.499 43.5408 20.499C43.7178 20.499 43.7532 20.554 43.8063 20.9203C43.8328 21.1585 43.8594 21.7171 43.8594 22.1567V22.9719H42.948C42.3552 22.9719 42.0013 22.9352 41.9305 22.862C41.8597 22.7887 41.8243 22.2941 41.8243 21.2226C41.8243 19.6198 41.842 19.5465 42.2225 19.629C42.3198 19.6564 42.4702 19.6748 42.5587 19.6748ZM36.9402 23.0818C36.9578 23.8969 36.9844 24.0526 37.0906 24.0068C37.1967 23.9701 37.2233 23.787 37.2233 23.2008C37.2233 22.5231 37.241 22.4407 37.3826 22.4681C37.4622 22.4865 37.6834 22.5322 37.8692 22.5597L38.1966 22.6147V23.5122V24.4189L37.9577 24.4464C37.8161 24.4647 37.3826 24.4739 36.9932 24.4556L36.2765 24.4281L36.2146 23.9518C36.1438 23.3016 36.1438 22.1934 36.2235 22.111C36.2589 22.0743 36.427 22.056 36.6039 22.0743L36.9136 22.1018L36.9402 23.0818ZM13.8378 22.2209C13.8997 22.2575 13.9263 22.3674 13.9086 22.4681C13.8909 22.5689 13.8732 23.0726 13.8732 23.5855L13.8643 24.5105L13.4485 24.5655C13.2096 24.5929 12.8026 24.5838 12.5371 24.5471L12.0505 24.483L12.0239 23.7046C12.0062 23.2741 12.0239 22.7521 12.0505 22.5322L12.1036 22.1476H12.9176C13.3689 22.1476 13.7759 22.1842 13.8378 22.2209ZM19.6156 22.8253C19.6156 23.1276 19.6421 23.6038 19.6687 23.8602L19.7306 24.3457H19.4298C18.7839 24.3457 18.7308 24.2907 18.7308 23.6588C18.7308 23.3474 18.7573 22.8986 18.7839 22.6696C18.837 22.3033 18.8724 22.2483 19.0759 22.2209C19.5625 22.1567 19.6156 22.2117 19.6156 22.8253ZM31.6313 23.2649L31.6578 24.3457H31.0739C30.5872 24.3457 30.4987 24.3182 30.4899 24.1808C30.4634 23.8236 30.5164 22.2758 30.5607 22.2117C30.5872 22.1751 30.8261 22.1476 31.1004 22.1659L31.6048 22.1934L31.6313 23.2649ZM6.03379 23.3748C6.13112 24.5471 6.14881 24.5288 5.09589 24.5288C3.86601 24.5288 3.86601 24.5288 3.86601 23.4756V22.6055H4.91893H5.97185L6.03379 23.3748ZM26.3224 23.4939L26.2959 24.2999H25.3846H24.4644L24.4467 23.4939L24.4201 22.6971H25.3846H26.349L26.3224 23.4939ZM15.9702 25.4081C16.1472 25.5271 16.1648 25.6279 16.1648 26.2781C16.1648 26.8643 16.1914 27.0016 16.2976 27.0016C16.4037 27.0016 16.4303 26.8551 16.4303 26.269C16.4303 25.463 16.5011 25.3531 17.0408 25.3531C17.3682 25.3531 17.377 25.3897 17.4301 26.8002C17.4744 28.0366 17.5009 28.0091 16.4126 28.0091C15.5455 28.0091 15.2181 27.8809 15.2623 27.542C15.28 27.4229 15.3066 26.9101 15.3066 26.4063C15.3154 25.9026 15.3597 25.4355 15.3951 25.3714C15.4924 25.2249 15.7313 25.234 15.9702 25.4081ZM9.06868 25.4905C9.14831 25.518 9.17486 25.866 9.17486 26.7635C9.17486 28.2106 9.18371 28.1923 8.27235 28.1923C7.40524 28.1923 7.44948 28.2747 7.47603 26.4796C7.49372 25.5912 7.51142 25.4538 7.65299 25.4264C7.8388 25.3806 8.91826 25.4264 9.06868 25.4905ZM22.3497 25.4813C22.4027 25.5454 22.4558 25.9209 22.4647 26.3056C22.4735 26.791 22.5089 27.0016 22.5797 27.0016C22.6593 27.0016 22.7036 26.7818 22.7301 26.3056C22.7655 25.5363 22.8363 25.4264 23.3318 25.463L23.6415 25.4905L23.6946 26.4063C23.7211 26.9101 23.7742 27.4138 23.8096 27.5237C23.845 27.6519 23.8184 27.771 23.7211 27.8717C23.5972 27.9999 23.4203 28.0183 22.6505 27.9908C22.0046 27.9725 21.7126 27.9267 21.6595 27.8442C21.5887 27.7252 21.6241 25.7103 21.6949 25.463C21.748 25.3165 22.2258 25.3256 22.3497 25.4813ZM40.1166 25.5546C40.1962 25.6187 40.2316 25.9301 40.2316 26.5071C40.2316 27.2123 40.2582 27.368 40.3644 27.368C40.4705 27.368 40.4971 27.2123 40.4971 26.4979C40.4971 25.7194 40.5148 25.6279 40.6829 25.5363C40.7802 25.4813 40.9749 25.4538 41.1076 25.4905L41.3553 25.5454L41.4173 26.736C41.4615 27.6061 41.4527 27.9633 41.373 28.064C41.3023 28.1556 41.0545 28.1923 40.4705 28.1923C39.3557 28.1923 39.3468 28.174 39.3468 26.8551C39.3468 26.2873 39.3911 25.7103 39.4353 25.5821C39.5149 25.3714 39.5592 25.3439 39.7715 25.3989C39.9043 25.4355 40.0635 25.4996 40.1166 25.5546ZM28.8618 25.5912C28.9769 25.637 28.9946 25.8293 28.9769 26.7635L28.9503 27.8717L28.2071 27.8992C27.6674 27.9175 27.4373 27.89 27.3931 27.8076C27.2869 27.6428 27.4108 25.6004 27.5258 25.5088C27.6231 25.4355 28.6141 25.4996 28.8618 25.5912ZM34.9316 25.6279C35.0821 25.7194 35.0998 25.8293 35.0998 26.8276V27.9267L34.3388 27.8992L33.5867 27.8717L33.5513 27.2764C33.5336 26.9467 33.5425 26.4247 33.569 26.1041L33.6221 25.5363H34.1884C34.4981 25.5363 34.8343 25.5821 34.9316 25.6279ZM13.183 27.7343H13.8643V28.8334V29.9324H12.9884C12.1301 29.9324 12.1124 29.9324 12.077 29.7034C12.0062 29.3279 11.9885 27.8351 12.0593 27.7252C12.0859 27.6702 12.2009 27.6519 12.3071 27.6794C12.4044 27.7069 12.8026 27.7343 13.183 27.7343ZM19.6598 28.8334L19.6687 29.9416L19.2174 29.9141L18.775 29.8866L18.7485 28.9341C18.7396 28.4029 18.7485 27.9175 18.7662 27.8534C18.8016 27.7801 18.9697 27.7343 19.2351 27.7343H19.6598V28.8334ZM26.1897 27.8076C26.3224 27.8259 26.3401 27.945 26.3401 28.87V29.9141L26.1101 29.969C25.9862 30.0057 25.8093 30.0057 25.7119 29.9782C25.5615 29.9232 25.5438 29.8225 25.5438 28.8425V27.7618L25.7916 27.7801C25.9243 27.7893 26.1012 27.8076 26.1897 27.8076ZM31.3747 27.7893L31.6578 27.8534L31.6313 28.9158L31.6048 29.9782L31.2597 30.0057C30.5164 30.0698 30.4987 30.0515 30.4987 28.9799C30.4987 28.4487 30.5253 27.9633 30.5518 27.8809C30.6138 27.7252 30.9058 27.6977 31.3747 27.7893ZM22.4204 30.7017C22.447 30.72 22.4647 31.0772 22.4558 31.4802C22.447 32.0755 22.4735 32.2221 22.5797 32.2221C22.677 32.2221 22.7124 32.0572 22.7301 31.4619L22.7567 30.7109L23.2168 30.6834L23.668 30.6559L23.73 31.1413C23.7565 31.4069 23.7742 31.9565 23.7565 32.3594L23.73 33.0921L22.7921 33.1196C21.5445 33.1562 21.571 33.1745 21.6241 31.8374C21.6772 30.5186 21.6684 30.5369 22.0577 30.601C22.2346 30.6376 22.4027 30.6742 22.4204 30.7017ZM16.0941 30.8757C16.1295 30.9398 16.1648 31.2604 16.1648 31.5993C16.1648 32.0847 16.1914 32.2221 16.2976 32.2221C16.3949 32.2221 16.4303 32.0572 16.448 31.5077L16.4745 30.8025L16.9258 30.775L17.377 30.7475L17.4301 31.8191C17.4655 32.5426 17.4567 32.9364 17.3947 33.0189C17.2797 33.1562 15.6694 33.1837 15.4658 33.0555C15.2889 32.9364 15.2889 30.8666 15.4658 30.7475C15.6163 30.6468 16.0056 30.7292 16.0941 30.8757ZM9.26334 31.9473C9.26334 32.8448 9.24564 32.9547 9.11292 32.9547C9.02444 32.9547 8.86517 32.9822 8.759 33.0097C8.55549 33.0646 8.55549 33.0646 8.55549 32.0022V30.9398H8.90942H9.26334V31.9473ZM13.537 33.7424L13.8643 33.8065V35.0337V36.261L12.9618 36.2335L12.0505 36.206L12.0239 35.1528C11.9885 33.6691 11.9797 33.6874 12.6522 33.6874C12.953 33.6874 13.3512 33.7149 13.537 33.7424ZM19.881 34.6857C19.881 35.2352 19.9076 35.8122 19.9341 35.9679L19.9961 36.261L19.1201 36.2335L18.2441 36.206L18.2176 34.9422L18.1911 33.6874H19.0405H19.881V34.6857ZM26.3401 34.9696V36.2427L25.9331 36.3068C25.5438 36.3617 24.6236 36.2976 24.4732 36.1969C24.429 36.1694 24.3936 35.6016 24.3936 34.933V33.7241L25.3669 33.7149L26.3401 33.6966V34.9696ZM15.979 36.5907C16.1295 36.7281 16.1648 36.8746 16.1825 37.5249C16.2002 38.0469 16.2445 38.3125 16.3241 38.34C16.4037 38.3675 16.4303 38.1568 16.4303 37.5066V36.6365L16.7046 36.5816C17.4124 36.435 17.3859 36.3801 17.4213 37.7813C17.439 38.4774 17.439 39.0727 17.4213 39.1093C17.3682 39.2284 15.5897 39.1918 15.4747 39.0727C15.3243 38.917 15.3243 36.5632 15.4835 36.4991C15.6782 36.4075 15.7932 36.435 15.979 36.5907ZM9.33412 37.3967L9.30758 38.1751H8.9802H8.64397V37.3967V36.6182H9.00674H9.36952L9.33412 37.3967ZM22.7832 36.7098H23.1637L23.1371 37.9187L23.1106 39.1368L22.4912 39.1643C21.9869 39.1826 21.8542 39.1643 21.7657 39.0361C21.6418 38.8529 21.5976 36.7922 21.7214 36.6731C21.7568 36.6365 21.9249 36.6273 22.0931 36.6548C22.2612 36.6823 22.5709 36.7098 22.7832 36.7098ZM13.8024 39.7687C13.8466 39.7779 13.882 40.3732 13.8909 41.0876L13.9086 42.3973L12.9884 42.3698L12.0682 42.3423L12.0593 41.0326C12.0505 40.245 12.0859 39.723 12.139 39.6955C12.2186 39.668 13.6431 39.723 13.8024 39.7687ZM19.9076 41.0784L19.9253 42.3789L19.7041 42.4064C19.5802 42.4247 19.1732 42.4247 18.8016 42.4064L18.1114 42.3698V41.1151C18.1114 40.419 18.138 39.8237 18.1734 39.7871C18.2088 39.7504 18.6069 39.7413 19.0582 39.7504L19.881 39.7779L19.9076 41.0784ZM25.3226 39.8145C25.3757 39.8145 25.6234 39.7962 25.88 39.7687L26.3401 39.7138V40.7121C26.3401 41.2524 26.3667 41.8569 26.3932 42.0401L26.4552 42.3881H25.4376H24.4201L24.3582 42.1042C24.2874 41.7378 24.2874 41.1334 24.367 40.3457L24.4201 39.7138L24.8271 39.7687C25.0483 39.7962 25.2784 39.8145 25.3226 39.8145ZM15.9702 42.8094C16.1472 42.9376 16.1648 43.0201 16.1648 43.7711C16.1648 44.4305 16.1914 44.5862 16.2976 44.5862C16.4037 44.5862 16.4303 44.4305 16.4303 43.7711C16.4303 42.8735 16.448 42.846 17.1204 42.846H17.4036L17.4213 43.8077C17.4301 44.3389 17.439 44.9067 17.439 45.0624L17.4478 45.3647L16.6249 45.4471C16.0498 45.502 15.7401 45.4929 15.5897 45.4288C15.3685 45.328 15.3685 45.3097 15.3685 44.055C15.3685 43.3589 15.3951 42.7545 15.4305 42.727C15.5278 42.6171 15.7578 42.6537 15.9702 42.8094ZM22.3408 42.9285C22.447 42.9926 22.5178 43.5421 22.5355 44.2839C22.5355 44.403 22.5797 44.4946 22.6239 44.4946C22.677 44.4946 22.7124 44.2107 22.7124 43.826C22.7124 43.4688 22.7478 43.1116 22.7921 43.0384C22.8363 42.9743 23.0487 42.8918 23.2787 42.8735L23.6857 42.8186V43.4413C23.6857 43.7894 23.73 44.3297 23.783 44.6594C23.8627 45.1448 23.8627 45.2639 23.7654 45.328C23.6946 45.3738 23.2079 45.4013 22.6682 45.3921L21.6949 45.3647L21.6684 44.1008L21.6418 42.846H21.9338C22.0931 42.846 22.2789 42.8827 22.3408 42.9285ZM28.2248 43.2124C28.269 43.249 28.4548 43.2582 28.6495 43.2399L28.9946 43.1849V44.2473V45.3097L28.6141 45.3647C28.4106 45.4013 28.1009 45.4104 27.9328 45.3921L27.6231 45.3647L27.5966 44.2748C27.5789 43.4597 27.6054 43.1666 27.6851 43.1116C27.8001 43.0292 28.1009 43.0842 28.2248 43.2124ZM13.4042 45.5753L13.8643 45.6394L13.882 46.9674L13.8997 48.2954H13.0415C12.484 48.2954 12.1567 48.2588 12.1124 48.1855C12.0682 48.1122 12.0416 45.6577 12.0859 45.5204C12.1036 45.4837 12.9264 45.5204 13.4042 45.5753ZM19.6156 46.9216V48.3412H19.1732H18.7308V46.9766V45.6028L19.1555 45.5661C19.3855 45.5478 19.5802 45.5295 19.5979 45.5204C19.6068 45.5112 19.6156 46.1431 19.6156 46.9216ZM26.1189 45.6119L26.3401 45.7127V46.9766V48.2405L26.057 48.2954C25.8977 48.3229 25.4642 48.3412 25.1014 48.3229L24.4378 48.2954L24.4113 46.8941L24.3847 45.502H25.1368C25.5527 45.502 25.9951 45.5478 26.1189 45.6119ZM31.5871 45.676C31.6225 45.7127 31.6401 46.3172 31.6313 47.0224L31.6048 48.2954H31.0739H30.543L30.5164 47.0224C30.4899 45.5295 30.5164 45.4562 31.1093 45.5478C31.3305 45.5845 31.5517 45.6394 31.5871 45.676ZM16.0233 48.9457C16.1295 49.0556 16.1648 49.2845 16.1648 49.9073C16.1648 50.5667 16.1914 50.7224 16.2976 50.7224C16.4037 50.7224 16.4303 50.5667 16.4303 49.9073V49.0922L16.6957 48.9823C16.8373 48.9182 17.0497 48.8907 17.1735 48.9274C17.377 48.9823 17.3859 49.0098 17.4213 50.0997C17.4478 50.7224 17.4301 51.2994 17.3859 51.3819C17.3239 51.5192 17.1735 51.5467 16.386 51.5467C15.8286 51.5467 15.4482 51.5101 15.4128 51.446C15.342 51.3361 15.3508 48.9915 15.4216 48.8724C15.5012 48.7442 15.8817 48.79 16.0233 48.9457ZM22.2081 48.8999C22.3939 48.9823 22.4293 49.083 22.4824 49.5501C22.5089 49.8615 22.5355 50.2462 22.5355 50.411C22.5355 50.6034 22.5797 50.7224 22.6505 50.7224C22.7301 50.7224 22.7478 50.5301 22.7301 49.9623C22.7036 49.3395 22.7213 49.1655 22.8452 49.0464C23.0133 48.8632 23.5353 48.8358 23.668 49.0006C23.7123 49.0647 23.7654 49.6509 23.783 50.3103L23.8184 51.4918L23.5972 51.5559C23.2079 51.6658 21.8719 51.6475 21.7568 51.5284C21.6064 51.3727 21.6064 49.0647 21.7568 48.909C21.8896 48.7717 21.9426 48.7717 22.2081 48.8999ZM34.3123 48.8907C34.4627 48.9731 34.4804 49.0922 34.4804 49.8066C34.4804 50.4752 34.5069 50.6309 34.6131 50.6309C34.7193 50.6309 34.7458 50.4843 34.7458 49.8982C34.7458 49.083 34.8432 48.9457 35.3917 49.0006L35.6749 49.0281L35.6926 50.2737L35.7103 51.5284L35.144 51.5925C34.5335 51.6566 33.7637 51.5742 33.6752 51.4277C33.5867 51.2903 33.6929 49.0464 33.7991 48.909C33.9053 48.7717 34.0822 48.7717 34.3123 48.8907ZM28.9592 49.0006C29.0211 49.0647 29.0211 51.3727 28.9592 51.4368C28.8795 51.5192 27.7647 51.5101 27.5523 51.4277C27.4196 51.3727 27.4019 51.217 27.4019 50.118V48.8632L28.1629 48.9182C28.5876 48.9457 28.9415 48.9915 28.9592 49.0006ZM40.3024 49.138C40.3821 49.2571 40.4086 49.6142 40.3909 50.4019L40.3644 51.5009L39.9308 51.5284C39.6654 51.5467 39.4707 51.5192 39.4353 51.4551C39.3468 51.2994 39.3734 49.1472 39.4707 48.9915C39.5769 48.8266 40.152 48.9274 40.3024 49.138ZM19.4386 51.6383H19.8545L19.9076 52.6549C19.943 53.2136 20.0138 53.7356 20.0669 53.7997C20.1199 53.873 20.1465 53.9921 20.1111 54.0653C20.058 54.2119 19.2174 54.2577 18.4565 54.1478L18.0672 54.0928L18.0937 52.9388C18.1026 52.2977 18.138 51.7207 18.1557 51.6475C18.1911 51.5559 18.3061 51.5376 18.6158 51.5833C18.837 51.6108 19.2086 51.6383 19.4386 51.6383ZM26.1101 51.7299C26.3401 51.8123 26.3401 51.8215 26.3401 52.9571C26.3401 53.9096 26.3136 54.102 26.1986 54.1478C26.0216 54.221 25.4465 54.221 24.8625 54.1478L24.3936 54.0836V52.8656V51.6383H25.1368C25.5527 51.6383 25.9862 51.6749 26.1101 51.7299ZM36.7632 51.6933C36.949 51.7482 36.9578 51.8032 36.9578 52.5267C36.9578 53.1953 36.9755 53.296 37.0994 53.2685C37.2144 53.2502 37.2498 53.1037 37.2587 52.5084L37.2675 51.7757L37.5949 51.7848C38.2054 51.8032 38.1966 51.7848 38.1966 53.0579V54.2027H37.3826C36.073 54.2027 36.1615 54.2943 36.1615 52.9297C36.1615 52.2886 36.1881 51.7299 36.2235 51.7024C36.2942 51.62 36.4977 51.62 36.7632 51.6933ZM31.5694 53.0121C31.6048 53.644 31.6225 54.1661 31.6136 54.1752C31.6136 54.1752 31.3659 54.2027 31.0739 54.221L30.543 54.2485L30.5164 53.1586C30.5076 52.5542 30.5164 52.0046 30.543 51.9405C30.5695 51.8489 30.7199 51.8215 31.0473 51.8398L31.5163 51.8673L31.5694 53.0121ZM28.8176 55.4391C28.8442 56.0436 28.853 56.5565 28.8353 56.5839C28.7822 56.6481 27.7381 56.6297 27.5612 56.5656C27.4196 56.5015 27.4019 56.3641 27.4019 55.3933V54.2851L28.0921 54.3126L28.7734 54.3401L28.8176 55.4391Z" fill="url(#paint0_linear_2_1055)"/>
<path d="M19.4386 5.34158C19.4386 5.68045 19.474 5.93689 19.5271 5.93689C19.5802 5.93689 19.6156 5.68045 19.6156 5.34158C19.6156 5.00271 19.5802 4.74627 19.5271 4.74627C19.474 4.74627 19.4386 5.00271 19.4386 5.34158Z" fill="url(#paint1_linear_2_1055)"/>
<path d="M28.0212 8.36389C28.0212 8.9134 28.0478 9.05078 28.154 9.05078C28.2601 9.05078 28.2867 8.9134 28.2867 8.36389C28.2867 7.81437 28.2601 7.67699 28.154 7.67699C28.0478 7.67699 28.0212 7.81437 28.0212 8.36389Z" fill="url(#paint2_linear_2_1055)"/>
<path d="M12.7141 11.3863C12.7141 11.9633 12.723 11.9816 12.9353 11.9816C13.1123 11.9816 13.1477 11.9449 13.1211 11.7709C13.0946 11.661 13.0769 11.3954 13.0769 11.1756C13.068 10.8551 13.0415 10.7909 12.8911 10.7909C12.7318 10.7909 12.7141 10.8551 12.7141 11.3863Z" fill="url(#paint3_linear_2_1055)"/>
<path d="M25.1634 10.9466C25.128 10.9741 25.1014 11.2031 25.1014 11.4503C25.1014 11.8258 25.128 11.89 25.2784 11.89C25.4377 11.89 25.4554 11.8258 25.4554 11.3862C25.4554 11.029 25.42 10.8825 25.3403 10.8825C25.2696 10.8825 25.1899 10.91 25.1634 10.9466Z" fill="url(#paint4_linear_2_1055)"/>
<path d="M28.1274 13.9232C28.0655 13.9873 28.0212 14.3078 28.0212 14.7017C28.0212 15.2329 28.0478 15.3702 28.154 15.3702C28.2601 15.3702 28.2867 15.2237 28.2867 14.5918C28.2867 14.1613 28.2778 13.8133 28.2601 13.8133C28.2424 13.8133 28.1894 13.8591 28.1274 13.9232Z" fill="url(#paint5_linear_2_1055)"/>
<path d="M34.215 14.6284C34.215 14.9856 34.2592 15.297 34.3034 15.3244C34.3565 15.3611 34.3919 15.1229 34.3919 14.6925C34.3919 14.2895 34.3565 13.9964 34.3034 13.9964C34.2504 13.9964 34.215 14.2712 34.215 14.6284Z" fill="url(#paint6_linear_2_1055)"/>
<path d="M16.5365 15.0039C16.5365 15.1779 16.5542 15.2511 16.5807 15.1596C16.5984 15.0771 16.5984 14.9306 16.5807 14.839C16.5542 14.7566 16.5365 14.8298 16.5365 15.0039Z" fill="url(#paint7_linear_2_1055)"/>
<path d="M36.9755 17.8064C36.9932 18.2094 37.0375 18.4384 37.1171 18.4658C37.2056 18.4933 37.2233 18.3559 37.2056 17.8797C37.1879 17.4767 37.1436 17.2477 37.064 17.2203C36.9755 17.1928 36.9578 17.3302 36.9755 17.8064Z" fill="url(#paint8_linear_2_1055)"/>
<path d="M12.7141 17.8339C12.7141 18.1636 12.7495 18.2918 12.8645 18.3376C13.0592 18.42 13.1565 18.246 13.1565 17.7698C13.1565 17.4218 13.1388 17.3851 12.9353 17.3851C12.7318 17.3851 12.7141 17.4126 12.7141 17.8339Z" fill="url(#paint9_linear_2_1055)"/>
<path d="M19.4386 17.8431C19.4386 18.1453 19.474 18.3926 19.5271 18.3926C19.5802 18.3926 19.6156 18.1453 19.6156 17.8431C19.6156 17.5408 19.5802 17.2935 19.5271 17.2935C19.474 17.2935 19.4386 17.5408 19.4386 17.8431Z" fill="url(#paint10_linear_2_1055)"/>
<path d="M28.1009 20.0594C28.1009 20.0778 28.0832 20.3617 28.0567 20.7005C28.0124 21.3416 28.1274 21.5614 28.2336 21.0394C28.3133 20.5998 28.2956 20.0411 28.1982 20.0411C28.154 20.0411 28.1098 20.0503 28.1009 20.0594Z" fill="url(#paint11_linear_2_1055)"/>
<path d="M34.215 20.7738C34.215 21.1402 34.2504 21.4149 34.3034 21.4149C34.3565 21.4149 34.3919 21.1402 34.3919 20.7738C34.3919 20.4075 34.3565 20.1327 34.3034 20.1327C34.2504 20.1327 34.215 20.4075 34.215 20.7738Z" fill="url(#paint12_linear_2_1055)"/>
<path d="M8.20154 20.673C8.20154 21.0485 8.23693 21.3233 8.29002 21.3233C8.34311 21.3233 8.3785 21.0669 8.3785 20.7372C8.3785 20.4074 8.34311 20.1144 8.29002 20.0869C8.23693 20.0503 8.20154 20.2701 8.20154 20.673Z" fill="url(#paint13_linear_2_1055)"/>
<path d="M12.7141 23.4756C12.7141 23.9152 12.7318 23.9793 12.8911 23.9793C13.0503 23.9793 13.068 23.9152 13.068 23.4756C13.068 23.036 13.0503 22.9719 12.8911 22.9719C12.7318 22.9719 12.7141 23.036 12.7141 23.4756Z" fill="url(#paint14_linear_2_1055)"/>
<path d="M4.57385 23.4206C4.57385 23.6954 4.69773 23.7961 5.0251 23.7961C5.33479 23.7961 5.37018 23.7687 5.37018 23.5672C5.37018 23.3565 5.33479 23.3382 4.97202 23.3382C4.75081 23.3382 4.57385 23.3748 4.57385 23.4206Z" fill="url(#paint15_linear_2_1055)"/>
<path d="M25.1722 23.3474C25.1014 23.5672 25.2076 23.9793 25.3403 23.9793C25.4288 23.9793 25.4553 23.8877 25.4376 23.6404C25.4111 23.3107 25.2429 23.1276 25.1722 23.3474Z" fill="url(#paint16_linear_2_1055)"/>
<path d="M8.16619 26.1499C8.13964 26.1774 8.1131 26.5071 8.1131 26.8826C8.1131 27.4138 8.13964 27.5511 8.24582 27.5511C8.352 27.5511 8.37854 27.4138 8.37854 26.8734C8.37854 26.2415 8.30776 26.0033 8.16619 26.1499Z" fill="url(#paint17_linear_2_1055)"/>
<path d="M28.1097 26.8185C28.1097 27.2489 28.1451 27.5511 28.1982 27.5511C28.2513 27.5511 28.2867 27.2489 28.2867 26.8185C28.2867 26.388 28.2513 26.0858 28.1982 26.0858C28.1451 26.0858 28.1097 26.388 28.1097 26.8185Z" fill="url(#paint18_linear_2_1055)"/>
<path d="M34.215 26.8093C34.215 27.1574 34.2592 27.4779 34.3034 27.5054C34.3565 27.542 34.3919 27.3222 34.3919 26.9192C34.3919 26.5712 34.3565 26.2507 34.3034 26.2232C34.2504 26.1865 34.215 26.4064 34.215 26.8093Z" fill="url(#paint19_linear_2_1055)"/>
<path d="M12.7141 28.7876C12.7141 29.2272 12.7318 29.2913 12.8911 29.2913C13.0503 29.2913 13.068 29.2272 13.068 28.7876C13.068 28.348 13.0503 28.2839 12.8911 28.2839C12.7318 28.2839 12.7141 28.348 12.7141 28.7876Z" fill="url(#paint20_linear_2_1055)"/>
<path d="M12.7141 34.9696C12.7141 35.455 12.7495 35.629 12.8468 35.6657C13.068 35.7573 13.1123 35.6382 13.0857 34.9788C13.0592 34.411 13.0326 34.3285 12.8822 34.3285C12.7318 34.3285 12.7141 34.4018 12.7141 34.9696Z" fill="url(#paint21_linear_2_1055)"/>
<path d="M18.8724 34.301C18.8458 34.3285 18.8193 34.6399 18.8193 34.9879C18.8193 35.4825 18.8458 35.6107 18.952 35.6107C19.0582 35.6107 19.0847 35.4825 19.0847 34.9788C19.0847 34.3835 19.0139 34.1545 18.8724 34.301Z" fill="url(#paint22_linear_2_1055)"/>
<path d="M25.1545 34.2553C25.0749 34.585 25.0926 35.5924 25.181 35.6565C25.3049 35.7298 25.3757 35.5649 25.4288 35.0246C25.4996 34.2736 25.3049 33.7058 25.1545 34.2553Z" fill="url(#paint23_linear_2_1055)"/>
<path d="M12.7141 41.0052C12.7141 41.4997 12.7407 41.6463 12.8557 41.6921C13.1034 41.7928 13.1565 41.6646 13.1565 41.0052C13.1565 40.3915 13.1477 40.3732 12.9353 40.3732C12.723 40.3732 12.7141 40.3915 12.7141 41.0052Z" fill="url(#paint24_linear_2_1055)"/>
<path d="M18.8193 41.0693C18.8193 41.5821 18.8458 41.7562 18.9343 41.7287C19.0051 41.7012 19.0493 41.4539 19.067 41.0326C19.0847 40.4831 19.067 40.3732 18.952 40.3732C18.8458 40.3732 18.8193 40.5014 18.8193 41.0693Z" fill="url(#paint25_linear_2_1055)"/>
<path d="M25.2341 40.0984C25.1987 40.1534 25.1545 40.5289 25.128 40.9319C25.0837 41.5363 25.1014 41.6554 25.2076 41.6554C25.3669 41.6554 25.4553 41.2799 25.4553 40.593C25.4553 40.1259 25.3492 39.8969 25.2341 40.0984Z" fill="url(#paint26_linear_2_1055)"/>
<path d="M12.7495 46.2714C12.723 46.3355 12.7141 46.656 12.7318 46.9766C12.7495 47.4345 12.7937 47.5627 12.9088 47.5902C13.0326 47.6177 13.0592 47.5169 13.0857 46.9674C13.0946 46.6102 13.1034 46.2805 13.0857 46.2347C13.0415 46.0974 12.8026 46.1248 12.7495 46.2714Z" fill="url(#paint27_linear_2_1055)"/>
<path d="M25.1103 46.83C25.0926 47.462 25.1103 47.5169 25.2695 47.5169C25.4199 47.5169 25.4465 47.4437 25.473 46.83C25.4996 46.1798 25.4907 46.1431 25.3138 46.1431C25.1457 46.1431 25.128 46.1981 25.1103 46.83Z" fill="url(#paint28_linear_2_1055)"/>
<path d="M28.1009 49.5685C28.0301 49.6417 28.1274 50.7224 28.2071 50.7224C28.2513 50.7224 28.2867 50.4568 28.2867 50.1271C28.2867 49.6051 28.2336 49.4402 28.1009 49.5685Z" fill="url(#paint29_linear_2_1055)"/>
<path d="M18.8104 52.2244C18.7927 52.2428 18.7927 52.5175 18.8016 52.8197C18.8281 53.2319 18.8724 53.3784 18.9609 53.3784C19.067 53.3784 19.0847 53.2594 19.067 52.8106C19.0405 52.3252 18.9432 52.0871 18.8104 52.2244Z" fill="url(#paint30_linear_2_1055)"/>
<path d="M25.1368 52.3161C25.1102 52.3802 25.1014 52.6641 25.1191 52.9297C25.1368 53.296 25.181 53.4243 25.2783 53.4243C25.3845 53.4243 25.4199 53.2869 25.4376 52.8015C25.4553 52.2886 25.4376 52.1878 25.3226 52.1878C25.2429 52.1878 25.1633 52.2428 25.1368 52.3161Z" fill="url(#paint31_linear_2_1055)"/>
<defs>
<linearGradient id="paint0_linear_2_1055" x1="25" y1="57.6514" x2="25" y2="1.14441e-05" gradientUnits="userSpaceOnUse">
<stop stop-color="#83A4D4"/>
<stop offset="1" stop-color="#B6FBFF"/>
</linearGradient>
<linearGradient id="paint1_linear_2_1055" x1="19.5271" y1="5.93689" x2="19.5271" y2="4.74627" gradientUnits="userSpaceOnUse">
<stop stop-color="#83A4D4"/>
<stop offset="1" stop-color="#B6FBFF"/>
</linearGradient>
<linearGradient id="paint2_linear_2_1055" x1="28.154" y1="9.05078" x2="28.154" y2="7.67699" gradientUnits="userSpaceOnUse">
<stop stop-color="#83A4D4"/>
<stop offset="1" stop-color="#B6FBFF"/>
</linearGradient>
<linearGradient id="paint3_linear_2_1055" x1="12.9216" y1="11.9816" x2="12.9216" y2="10.7909" gradientUnits="userSpaceOnUse">
<stop stop-color="#83A4D4"/>
<stop offset="1" stop-color="#B6FBFF"/>
</linearGradient>
<linearGradient id="paint4_linear_2_1055" x1="25.2784" y1="11.89" x2="25.2784" y2="10.8825" gradientUnits="userSpaceOnUse">
<stop stop-color="#83A4D4"/>
<stop offset="1" stop-color="#B6FBFF"/>
</linearGradient>
<linearGradient id="paint5_linear_2_1055" x1="28.154" y1="15.3702" x2="28.154" y2="13.8133" gradientUnits="userSpaceOnUse">
<stop stop-color="#83A4D4"/>
<stop offset="1" stop-color="#B6FBFF"/>
</linearGradient>
<linearGradient id="paint6_linear_2_1055" x1="34.3034" y1="15.3281" x2="34.3034" y2="13.9964" gradientUnits="userSpaceOnUse">
<stop stop-color="#83A4D4"/>
<stop offset="1" stop-color="#B6FBFF"/>
</linearGradient>
<linearGradient id="paint7_linear_2_1055" x1="16.5653" y1="15.1992" x2="16.5653" y2="14.8052" gradientUnits="userSpaceOnUse">
<stop stop-color="#83A4D4"/>
<stop offset="1" stop-color="#B6FBFF"/>
</linearGradient>
<linearGradient id="paint8_linear_2_1055" x1="37.0906" y1="18.4692" x2="37.0906" y2="17.2169" gradientUnits="userSpaceOnUse">
<stop stop-color="#83A4D4"/>
<stop offset="1" stop-color="#B6FBFF"/>
</linearGradient>
<linearGradient id="paint9_linear_2_1055" x1="12.9353" y1="18.3573" x2="12.9353" y2="17.3851" gradientUnits="userSpaceOnUse">
<stop stop-color="#83A4D4"/>
<stop offset="1" stop-color="#B6FBFF"/>
</linearGradient>
<linearGradient id="paint10_linear_2_1055" x1="19.5271" y1="18.3926" x2="19.5271" y2="17.2935" gradientUnits="userSpaceOnUse">
<stop stop-color="#83A4D4"/>
<stop offset="1" stop-color="#B6FBFF"/>
</linearGradient>
<linearGradient id="paint11_linear_2_1055" x1="28.1654" y1="21.3308" x2="28.1654" y2="20.0411" gradientUnits="userSpaceOnUse">
<stop stop-color="#83A4D4"/>
<stop offset="1" stop-color="#B6FBFF"/>
</linearGradient>
<linearGradient id="paint12_linear_2_1055" x1="34.3034" y1="21.4149" x2="34.3034" y2="20.1327" gradientUnits="userSpaceOnUse">
<stop stop-color="#83A4D4"/>
<stop offset="1" stop-color="#B6FBFF"/>
</linearGradient>
<linearGradient id="paint13_linear_2_1055" x1="8.29002" y1="21.3233" x2="8.29002" y2="20.0829" gradientUnits="userSpaceOnUse">
<stop stop-color="#83A4D4"/>
<stop offset="1" stop-color="#B6FBFF"/>
</linearGradient>
<linearGradient id="paint14_linear_2_1055" x1="12.8911" y1="23.9793" x2="12.8911" y2="22.9719" gradientUnits="userSpaceOnUse">
<stop stop-color="#83A4D4"/>
<stop offset="1" stop-color="#B6FBFF"/>
</linearGradient>
<linearGradient id="paint15_linear_2_1055" x1="4.97202" y1="23.7961" x2="4.97202" y2="23.3382" gradientUnits="userSpaceOnUse">
<stop stop-color="#83A4D4"/>
<stop offset="1" stop-color="#B6FBFF"/>
</linearGradient>
<linearGradient id="paint16_linear_2_1055" x1="25.2962" y1="23.9793" x2="25.2962" y2="23.2514" gradientUnits="userSpaceOnUse">
<stop stop-color="#83A4D4"/>
<stop offset="1" stop-color="#B6FBFF"/>
</linearGradient>
<linearGradient id="paint17_linear_2_1055" x1="8.24582" y1="27.5511" x2="8.24582" y2="26.1081" gradientUnits="userSpaceOnUse">
<stop stop-color="#83A4D4"/>
<stop offset="1" stop-color="#B6FBFF"/>
</linearGradient>
<linearGradient id="paint18_linear_2_1055" x1="28.1982" y1="27.5511" x2="28.1982" y2="26.0858" gradientUnits="userSpaceOnUse">
<stop stop-color="#83A4D4"/>
<stop offset="1" stop-color="#B6FBFF"/>
</linearGradient>
<linearGradient id="paint19_linear_2_1055" x1="34.3034" y1="27.5093" x2="34.3034" y2="26.2192" gradientUnits="userSpaceOnUse">
<stop stop-color="#83A4D4"/>
<stop offset="1" stop-color="#B6FBFF"/>
</linearGradient>
<linearGradient id="paint20_linear_2_1055" x1="12.8911" y1="29.2913" x2="12.8911" y2="28.2839" gradientUnits="userSpaceOnUse">
<stop stop-color="#83A4D4"/>
<stop offset="1" stop-color="#B6FBFF"/>
</linearGradient>
<linearGradient id="paint21_linear_2_1055" x1="12.9034" y1="35.6928" x2="12.9034" y2="34.3285" gradientUnits="userSpaceOnUse">
<stop stop-color="#83A4D4"/>
<stop offset="1" stop-color="#B6FBFF"/>
</linearGradient>
<linearGradient id="paint22_linear_2_1055" x1="18.952" y1="35.6107" x2="18.952" y2="34.2581" gradientUnits="userSpaceOnUse">
<stop stop-color="#83A4D4"/>
<stop offset="1" stop-color="#B6FBFF"/>
</linearGradient>
<linearGradient id="paint23_linear_2_1055" x1="25.2737" y1="35.673" x2="25.2737" y2="34.036" gradientUnits="userSpaceOnUse">
<stop stop-color="#83A4D4"/>
<stop offset="1" stop-color="#B6FBFF"/>
</linearGradient>
<linearGradient id="paint24_linear_2_1055" x1="12.9353" y1="41.7226" x2="12.9353" y2="40.3732" gradientUnits="userSpaceOnUse">
<stop stop-color="#83A4D4"/>
<stop offset="1" stop-color="#B6FBFF"/>
</linearGradient>
<linearGradient id="paint25_linear_2_1055" x1="18.9461" y1="41.7314" x2="18.9461" y2="40.3732" gradientUnits="userSpaceOnUse">
<stop stop-color="#83A4D4"/>
<stop offset="1" stop-color="#B6FBFF"/>
</linearGradient>
<linearGradient id="paint26_linear_2_1055" x1="25.2803" y1="41.6554" x2="25.2803" y2="40.025" gradientUnits="userSpaceOnUse">
<stop stop-color="#83A4D4"/>
<stop offset="1" stop-color="#B6FBFF"/>
</linearGradient>
<linearGradient id="paint27_linear_2_1055" x1="12.9093" y1="47.5943" x2="12.9093" y2="46.1452" gradientUnits="userSpaceOnUse">
<stop stop-color="#83A4D4"/>
<stop offset="1" stop-color="#B6FBFF"/>
</linearGradient>
<linearGradient id="paint28_linear_2_1055" x1="25.2945" y1="47.5169" x2="25.2945" y2="46.1431" gradientUnits="userSpaceOnUse">
<stop stop-color="#83A4D4"/>
<stop offset="1" stop-color="#B6FBFF"/>
</linearGradient>
<linearGradient id="paint29_linear_2_1055" x1="28.1816" y1="50.7224" x2="28.1816" y2="49.527" gradientUnits="userSpaceOnUse">
<stop stop-color="#83A4D4"/>
<stop offset="1" stop-color="#B6FBFF"/>
</linearGradient>
<linearGradient id="paint30_linear_2_1055" x1="18.9344" y1="53.3784" x2="18.9344" y2="52.1859" gradientUnits="userSpaceOnUse">
<stop stop-color="#83A4D4"/>
<stop offset="1" stop-color="#B6FBFF"/>
</linearGradient>
<linearGradient id="paint31_linear_2_1055" x1="25.2767" y1="53.4243" x2="25.2767" y2="52.1878" gradientUnits="userSpaceOnUse">
<stop stop-color="#83A4D4"/>
<stop offset="1" stop-color="#B6FBFF"/>
</linearGradient>
</defs>
</svg>
