<svg width="200" height="204" viewBox="0 0 200 204" fill="none" xmlns="http://www.w3.org/2000/svg">
<path d="M167.431 0.488144C167.178 0.957542 160.282 8.10685 140.928 27.966C137.462 31.5407 132.912 36.2347 130.818 38.4372C128.76 40.6037 125.727 43.7812 124.102 45.4782L121.141 48.5474L117.458 49.1973C113.558 49.8472 100.126 54.144 96.7323 55.8411C94.8547 56.7438 94.6019 56.7799 93.3743 56.3105C91.3161 55.5883 87.5248 53.2052 82.7225 49.6306C80.3033 47.8252 76.2231 44.9005 73.6234 43.1312C71.0598 41.398 67.1601 38.6178 64.9576 37.029C61.058 34.1765 55.1363 30.0964 47.2648 24.7886C45.0984 23.3443 41.0182 20.4556 38.2379 18.4336C34.6633 15.8339 33.1468 14.8951 33.0746 15.2923C33.0023 15.5811 33.6884 18.578 34.6272 21.8999C35.5299 25.2218 37.0103 30.5658 37.8769 33.7432C41.3793 46.4892 50.6951 83.2829 50.6951 84.4022C50.6951 84.5466 50.2618 84.9438 49.7202 85.2688C48.1675 86.1715 42.4625 92.0931 40.7655 94.5484C37.5158 99.2063 36.1798 104.731 37.4797 108.125C38.0935 109.714 39.8628 111.555 40.7655 111.555C41.271 111.555 41.6682 113.108 41.6682 115.202C41.6682 115.924 41.8848 116.791 42.1737 117.043C42.5709 117.477 42.282 117.838 40.26 119.571C38.9601 120.654 36.4326 122.64 34.6272 123.94C32.8579 125.276 30.7276 126.865 29.9332 127.479C29.1388 128.092 25.9614 130.475 22.8922 132.786C19.8231 135.097 17.2233 137.083 17.115 137.192C17.0067 137.3 16.0318 138.058 14.9485 138.889C13.8653 139.755 11.735 141.416 10.2546 142.608C8.77415 143.799 6.42715 145.677 5.01896 146.76C3.64687 147.843 1.94981 149.179 1.26377 149.757L0 150.804L0.866582 151.851C1.33598 152.429 3.28579 154.27 5.19949 155.967C10.1462 160.336 23.145 172.144 27.3335 176.115C29.2833 177.957 32.9662 181.315 35.4577 183.554C37.9852 185.828 40.946 188.5 42.0292 189.511C43.1125 190.522 44.0513 191.353 44.1596 191.353C44.5929 191.353 50.009 189.042 58.9276 184.998C64.3799 182.543 68.8933 180.521 68.9655 180.521C69.0738 180.521 70.5542 179.871 72.2874 179.04C74.0206 178.21 77.3786 176.693 79.7617 175.61C82.1448 174.527 84.8529 173.263 85.7917 172.794L87.4887 171.927L90.0162 175.791C92.7604 180.015 98.1043 189.439 101.065 195.325C102.112 197.419 103.629 200.199 104.423 201.535L105.831 203.991L106.012 199.008C106.554 185.648 111.392 171.999 119.661 160.661C120.455 159.578 121.394 158.278 121.719 157.773C123.235 155.57 127.64 150.371 130.998 146.796C131.757 146.002 133.598 143.908 135.042 142.21L137.678 139.069L136.162 139.43C133.165 140.08 124.824 142.572 121.466 143.799C108.937 148.349 105.615 149.613 101.787 151.273C99.4403 152.321 96.1184 153.693 94.3853 154.343C91.5328 155.426 83.6252 158.748 80.1228 160.3C79.3284 160.661 77.3064 161.528 75.6093 162.214C69.7599 164.597 61.6718 168.172 56.4723 170.663C53.5837 172.035 50.2979 173.552 49.1786 173.985L47.1204 174.816L45.3873 173.624C44.4485 172.974 42.7514 171.602 41.6682 170.591C40.5488 169.616 38.7073 167.955 37.5158 166.98C34.0856 164.056 33.0746 163.189 27.839 158.459C25.0948 156.004 22.1701 153.44 21.3396 152.79C20.5091 152.104 19.787 151.454 19.7147 151.273C19.6425 151.129 20.473 150.371 21.5201 149.649C24.3004 147.663 38.6712 136.65 44.8817 131.739C52.0672 126.07 54.8113 122.676 56.2556 117.73C57.4111 113.794 56.725 111.086 53.9448 108.486C51.2728 106.031 50.7673 103.431 52.2838 100.181C54.0531 96.3899 64.9215 85.5576 71.2764 81.2247C73.6956 79.5999 79.9061 75.8086 80.1589 75.8086C80.2672 75.8086 79.4006 76.8557 78.2452 78.1556C75.6815 80.972 72.4318 86.1354 70.7348 89.9989L69.5432 92.8153L71.2042 91.2265C73.9484 88.699 85.7917 82.7412 95.4685 79.0583C103.484 75.9891 111.175 71.5479 119.841 64.9763C128.435 58.4769 135.151 51.8331 147.283 37.8956C151.869 32.6239 156.563 27.28 157.79 25.9801C158.982 24.6802 160.426 23.0554 161.004 22.3693C161.582 21.6833 161.906 21.4305 161.726 21.8277C161.545 22.2249 161.293 26.3773 161.148 31.0352C160.895 39.5566 160.643 41.5425 158.801 50.3527C156.057 63.3154 155.696 68.1899 157.104 72.7394C158.151 76.0613 160.173 79.1305 162.99 81.5497C165.77 83.9689 171.403 90.5405 173.028 93.2486C173.678 94.3318 174.725 96.6066 175.302 98.2675C175.88 99.8924 176.494 101.553 176.711 101.878C177.18 102.709 177.18 102.709 174.869 101.698C169.742 99.4591 160.787 97.9425 150.713 97.5815C142.842 97.3287 143.203 97.1121 146.741 100.001C156.815 108.125 163.242 117.224 166.528 127.984C169.092 136.397 170.067 142.138 170.464 151.815C170.789 160.409 169.85 167.414 166.998 177.632C166.42 179.726 165.987 181.459 166.023 181.532C166.131 181.604 168.767 178.715 172.522 174.455C178.516 167.594 183.463 158.134 185.737 149.288C187.435 142.68 188.012 134.52 187.182 128.742C186.965 127.37 186.857 126.215 186.929 126.143C186.965 126.07 188.121 127.262 189.42 128.815C190.756 130.331 193.465 133.256 195.414 135.314L198.989 139.033L199.494 136.036C199.819 134.086 200 130.151 200 124.734C199.964 117.08 199.892 116.069 198.989 111.736C196.967 102.348 194.764 97.1482 188.698 87.5797C184.799 81.4775 185.449 83.1384 181.224 68.4065C178.263 57.9714 175.483 46.3087 174.183 38.5094C172.125 26.4856 169.092 6.66254 168.55 2.04077C168.334 -0.0173626 167.973 -0.486761 167.431 0.488144ZM51.5617 41.2536C54.8113 43.6728 63.0439 50.2083 69.9043 55.7689L82.3975 65.8429L79.6173 66.6373C76.7286 67.5038 67.8823 71.4035 64.5243 73.3172C63.4411 73.931 62.5023 74.3643 62.43 74.2921C62.3578 74.2199 61.9606 72.7033 61.5996 70.9341C59.8303 62.9543 55.2446 52.8081 48.7092 42.5535C46.8316 39.5927 45.2789 37.1012 45.2789 36.9929C45.2789 36.5596 45.965 37.029 51.5617 41.2536Z" fill="#AAAAAA"/>
<path d="M100.885 96.39C98.7905 96.5344 94.4937 96.5705 91.3163 96.4622C86.5501 96.3178 85.1419 96.39 83.3726 96.8955C78.3898 98.3398 76.7649 100.326 74.7429 107.656C74.0568 110.111 72.9375 111.483 70.1572 113.397C68.0991 114.769 63.3329 119.282 63.3329 119.824C63.3329 119.968 64.5244 119.499 66.0048 118.741C68.8935 117.296 70.6988 116.971 79.7618 116.285C89.547 115.527 93.0133 113.83 97.8879 107.331C101.463 102.564 106.518 98.3759 109.767 97.4732C111.392 97.0038 111.428 97.0038 110.598 96.5344C109.659 96.0289 107.204 95.9928 100.885 96.39Z" fill="#AAAAAA"/>
</svg>
